<svg width="22" height="22" viewBox="0 0 22 22" fill="none" xmlns="http://www.w3.org/2000/svg">
<path fill-rule="evenodd" clip-rule="evenodd" d="M19.8613 6.99992H21.6667V5.66658L20.3333 4.99992L11 0.333252L1.66666 4.99992L0.333328 5.66658V6.99992H19.8613ZM15.8613 4.99992L11 2.56925L6.13866 4.99992H15.8613ZM5.33199 17.5866V8.91992H3.33199V17.5866H5.33199ZM11.9987 8.91992V17.5866H9.99866V8.91992H11.9987ZM18.6653 8.91992V17.5866H16.6653V8.91992H18.6653ZM21.668 20.6666C21.668 21.2186 21.2227 21.6666 20.6707 21.6666H1.33599C1.07078 21.6666 0.816425 21.5612 0.628888 21.3737C0.441352 21.1862 0.335995 20.9318 0.335995 20.6666C0.335995 20.4014 0.441352 20.147 0.628888 19.9595C0.816425 19.7719 1.07078 19.6666 1.33599 19.6666H20.6693C20.9343 19.6669 21.1883 19.7724 21.3756 19.9599C21.5628 20.1474 21.668 20.4016 21.668 20.6666Z" fill="#1E1E1E"/>
</svg>
