<svg width="56" height="18" fill="none" xmlns="http://www.w3.org/2000/svg"><g clip-path="url(#a)" fill="#1E1E1E"><path d="M13.809.028V.3c3.592.804 6.75 3.085 6.75 8.347 0 4.918-3.686 8.188-8.196 8.185-5.575-.003-10.22-3.279-10.22-6.002 0-2.474 4.893-4.313 9.118-4.46l1.97.04V0C4.898-.006 0 3.718 0 8.878c0 4.919 5.6 8.907 12.547 8.913 6.947.006 12.581-3.7 12.581-8.894 0-4.55-4.786-8.526-11.32-8.87Z"/><path d="M7.721 11.574c0 2.75 3.076 4.347 5.47 4.519v-9.32c-2.845.107-5.47 2.078-5.47 4.801ZM50.422 4.436l.126-.71c-1.437-.671-5.195-.358-5.127 2.171.058 2.195 2.898 2.85 5.035 2.25l-.074-.773c-.651.175-3.497.402-3.46-1.461.046-2.324 3.171-1.594 3.497-1.483l.003.006ZM50.836 3.527v.762l1.922.003-.003 3.988h1.36V4.292H56V3.53l-5.164-.003ZM42.51 8.234l2.518.003v-.795l-2.518-.003V6.284l2.389.003V5.49H42.51V4.283l2.54.003v-.798h-3.807l-.004 4.746 1.271.003v-.003ZM34.145 3.49h-1.422v4.728h1.422V3.49ZM28.732 3.527h-2.545v4.728h2.545c1.729 0 3.224-.875 3.224-2.342 0-1.459-1.495-2.386-3.224-2.386Zm-.248 3.933-.875.025V4.197l1.096.058c.764 0 1.759.519 1.759 1.615 0 .905-.746 1.593-1.98 1.59ZM28.732 9.468h-2.545v4.728h2.545c1.729 0 3.224-.875 3.224-2.343 0-1.458-1.495-2.385-3.224-2.385Zm-.252 3.933-.875.024v-3.288l1.096.059c.765 0 1.76.518 1.76 1.614 0 .906-.746 1.594-1.98 1.59ZM49.522 10.757H48.15v3.516h1.372v-3.516ZM49.522 9.115H48.15v.905h1.372v-.905ZM54.189 13.192V11.51h1.163v-.746H54.19v-.906h-1.403v.906h-1.093v.746h1.093v1.842c0 1.243 1.66 1.277 2.606 1.056v-.777c-.436.15-1.203.01-1.203-.44ZM36.066 10.481c-1.516 0-2.581.835-2.581 1.888 0 1.185 1.154 1.913 2.581 1.913.783 0 1.486-.028 2.036-.286v-.826c-.368.387-3.113.875-3.184-.49h3.522c.089-1.65-1.204-2.199-2.374-2.199Zm-1.139 1.544c.022-.59.507-.838 1.155-.838.595 0 .995.3 1.053.832h-2.207v.006ZM38.89 5.953c.056-.003 1.115-.09 1.115-1.213 0-1.074-1.378-1.256-2.094-1.256h-2.548v4.747h1.41V6.339h.524a.805.805 0 0 1 .777.48l.75 1.415h1.482l-1.09-1.94c-.009-.013-.16-.23-.328-.338l.003-.003Zm-1.203-.418h-.924V4.261h.946c.439 0 .875.209.875.642 0 .393-.528.632-.897.632ZM43.619 10.625c-.722 0-1.314.181-1.686.59V9.103h-1.372v5.127h1.372v-.446c.353.396.921.577 1.676.577 1.158 0 2.094-.706 2.094-1.894 0-1.219-.927-1.836-2.084-1.839v-.003Zm-.495 2.957c-.632 0-1.142-.44-1.194-.992v-.175c.052-.556.562-.991 1.194-.991.667 0 1.204.485 1.204 1.08 0 .596-.54 1.08-1.204 1.08v-.002Z"/></g><defs><clipPath id="a"><path fill="#fff" d="M0 0h56v17.788H0z"/></clipPath></defs></svg>