<svg width="64" height="30" viewBox="0 0 64 30" fill="none" xmlns="http://www.w3.org/2000/svg">
<path d="M24.4973 6.97893C24.5092 5.14915 23.0355 3.65619 21.2057 3.64431C19.3759 3.63243 17.8829 5.10613 17.8711 6.93591C17.8592 8.76569 19.3329 10.2587 21.1627 10.2705C22.9924 10.2824 24.4854 8.80872 24.4973 6.97893Z" fill="url(#paint0_linear_530_3195)"/>
<path d="M27.1015 4.70654H30.805V25.7206H27.1015V4.70654Z" fill="white"/>
<path d="M34.0916 11.957H37.795V25.7207H34.0916V11.957Z" fill="white"/>
<path d="M17.4728 11.8195C16.3133 11.8179 15.1715 12.1044 14.1502 12.6534V4.70703H10.4463V18.8432C10.4459 20.2328 10.8576 21.5912 11.6293 22.7468C12.401 23.9024 13.4981 24.8032 14.7818 25.3352C16.0654 25.8673 17.478 26.0067 18.841 25.7359C20.2039 25.4651 21.4559 24.7963 22.4387 23.8139C23.4214 22.8315 24.0908 21.5798 24.3622 20.217C24.6335 18.8541 24.4946 17.4415 23.9631 16.1576C23.4315 14.8737 22.5312 13.7763 21.3759 13.0041C20.2206 12.232 18.8623 11.8197 17.4728 11.8195ZM17.4728 22.2246C16.8041 22.2246 16.1505 22.0264 15.5945 21.6549C15.0385 21.2834 14.6051 20.7554 14.3492 20.1376C14.0933 19.5199 14.0263 18.8401 14.1567 18.1843C14.2872 17.5284 14.6091 16.926 15.0819 16.4531C15.5547 15.9803 16.1571 15.6582 16.8129 15.5277C17.4687 15.3972 18.1485 15.4641 18.7663 15.7199C19.3841 15.9758 19.9122 16.409 20.2837 16.965C20.6553 17.5209 20.8536 18.1745 20.8537 18.8432C20.8539 19.2873 20.7666 19.727 20.5968 20.1373C20.4269 20.5476 20.1779 20.9205 19.8639 21.2345C19.5499 21.5485 19.1772 21.7976 18.7669 21.9675C18.3566 22.1374 17.9168 22.2248 17.4728 22.2246Z" fill="white"/>
<path d="M49.9783 25.7216H54.7489L49.0172 18.3189L54.2146 11.958H49.8876L44.7836 18.3586V4.70947H41.0792V25.7216H44.7836L44.7808 18.3763L49.9783 25.7216Z" fill="white"/>
<defs>
<linearGradient id="paint0_linear_530_3195" x1="18.8233" y1="9.28125" x2="23.5451" y2="4.62697" gradientUnits="userSpaceOnUse">
<stop stop-color="#E52F08"/>
<stop offset="1" stop-color="#E94F96"/>
</linearGradient>
</defs>
</svg>
