<svg width="560" height="115" viewBox="0 0 560 115" fill="none" xmlns="http://www.w3.org/2000/svg">
<g clip-path="url(#clip0_1299_29624)">
<path d="M560 0H0V115H560V0Z" fill="url(#paint0_linear_1299_29624)"/>
<g filter="url(#filter0_f_1299_29624)">
<path d="M119 86C-40.9452 90.1878 -159.685 164.861 -227.798 199.656L587.394 114.29L583.643 -27.7929C584.988 -49.4306 574.375 -70.3793 536.188 -40.0691C409.771 60.2739 268.445 82.0871 119 86Z" fill="url(#paint1_linear_1299_29624)"/>
</g>
<path fill-rule="evenodd" clip-rule="evenodd" d="M337.354 57.8016C337.354 49.5986 333.38 43.126 325.786 43.126C318.16 43.126 313.546 49.5986 313.546 57.7375C313.546 67.3823 318.993 72.2528 326.812 72.2528C330.625 72.2528 333.509 71.3877 335.687 70.17V63.7615C333.509 64.851 331.009 65.5238 327.837 65.5238C324.729 65.5238 321.973 64.4344 321.621 60.6534H337.29C337.29 60.2368 337.354 58.5706 337.354 57.8016ZM321.525 54.7575C321.525 51.1367 323.735 49.6307 325.754 49.6307C327.709 49.6307 329.792 51.1367 329.792 54.7575H321.525Z" fill="white"/>
<path fill-rule="evenodd" clip-rule="evenodd" d="M301.178 43.126C298.038 43.126 296.019 44.6 294.898 45.6253L294.481 43.6387H287.432V81.0005L295.442 79.3022L295.474 70.2341C296.628 71.0672 298.326 72.2528 301.146 72.2528C306.882 72.2528 312.105 67.6387 312.105 57.4811C312.072 48.1887 306.785 43.126 301.178 43.126ZM299.255 65.2034C297.365 65.2034 296.243 64.5305 295.474 63.6974L295.442 51.8096C296.275 50.8803 297.429 50.2395 299.255 50.2395C302.171 50.2395 304.19 53.5078 304.19 57.7054C304.19 61.9992 302.203 65.2034 299.255 65.2034Z" fill="white"/>
<path fill-rule="evenodd" clip-rule="evenodd" d="M276.408 41.235L284.451 39.5047V33L276.408 34.6983V41.235Z" fill="white"/>
<path d="M284.451 43.6699H276.408V71.7073H284.451V43.6699Z" fill="white"/>
<path fill-rule="evenodd" clip-rule="evenodd" d="M267.789 46.0413L267.277 43.6701H260.355V71.7075H268.366V52.7062C270.257 50.2389 273.461 50.6875 274.454 51.04V43.6701C273.429 43.2856 269.68 42.5807 267.789 46.0413Z" fill="white"/>
<path fill-rule="evenodd" clip-rule="evenodd" d="M251.767 36.7168L243.949 38.3831L243.917 64.0493C243.917 68.7916 247.474 72.2843 252.216 72.2843C254.844 72.2843 256.766 71.8036 257.824 71.2269V64.7222C256.798 65.1387 251.735 66.6127 251.735 61.8704V50.4952H257.824V43.6701H251.735L251.767 36.7168Z" fill="white"/>
<path fill-rule="evenodd" clip-rule="evenodd" d="M230.107 51.8096C230.107 50.5599 231.132 50.0793 232.83 50.0793C235.266 50.0793 238.342 50.8162 240.777 52.13V44.6C238.117 43.5425 235.49 43.126 232.83 43.126C226.326 43.126 222 46.5225 222 52.1941C222 61.0379 234.176 59.628 234.176 63.4411C234.176 64.915 232.895 65.3957 231.1 65.3957C228.441 65.3957 225.044 64.3062 222.352 62.8323V70.4584C225.332 71.7401 228.344 72.2849 231.1 72.2849C237.765 72.2849 242.347 68.9845 242.347 63.2488C242.315 53.7001 230.107 55.3984 230.107 51.8096Z" fill="white"/>
</g>
<defs>
<filter id="filter0_f_1299_29624" x="-230.798" y="-58.2344" width="821.192" height="260.89" filterUnits="userSpaceOnUse" color-interpolation-filters="sRGB">
<feFlood flood-opacity="0" result="BackgroundImageFix"/>
<feBlend mode="normal" in="SourceGraphic" in2="BackgroundImageFix" result="shape"/>
<feGaussianBlur stdDeviation="1.5" result="effect1_foregroundBlur_1299_29624"/>
</filter>
<linearGradient id="paint0_linear_1299_29624" x1="49" y1="-5" x2="560" y2="115" gradientUnits="userSpaceOnUse">
<stop stop-color="#5FC3E4"/>
<stop offset="0.25" stop-color="#D17DA4"/>
<stop offset="0.638271" stop-color="#FF5345"/>
<stop offset="0.813354" stop-color="#FF2B33"/>
<stop offset="1" stop-color="#E55D87"/>
</linearGradient>
<linearGradient id="paint1_linear_1299_29624" x1="153.703" y1="52.0026" x2="542.585" y2="-37.5534" gradientUnits="userSpaceOnUse">
<stop stop-color="#BB65EA"/>
<stop offset="0.326923" stop-color="#EB9A86"/>
<stop offset="0.5625" stop-color="#FA9866"/>
<stop offset="0.841346" stop-color="#FF7955" stop-opacity="0"/>
</linearGradient>
<clipPath id="clip0_1299_29624">
<rect width="560" height="115" fill="white"/>
</clipPath>
</defs>
</svg>
