<svg width="64" height="40" viewBox="0 0 64 40" fill="none" xmlns="http://www.w3.org/2000/svg">
<rect width="64" height="40" rx="3" fill="white"/>
<path fill-rule="evenodd" clip-rule="evenodd" d="M26.519 24.8035C24.5973 26.2216 21.8114 26.9758 19.4122 26.9758C16.05 26.9758 13.0222 25.7329 10.7309 23.664C10.5512 23.5014 10.7114 23.2796 10.9276 23.4053C13.3996 24.8438 16.4569 25.7102 19.614 25.7102C21.7439 25.7102 24.0853 25.2681 26.2397 24.3542C26.5646 24.2167 26.8371 24.5684 26.519 24.8035Z" fill="#F79C34"/>
<path fill-rule="evenodd" clip-rule="evenodd" d="M27.3188 23.8902C27.0728 23.5756 25.6941 23.7412 25.0746 23.8154C24.8869 23.8381 24.8578 23.674 25.0269 23.5553C26.1269 22.7826 27.9295 23.0056 28.1389 23.2645C28.3499 23.5252 28.0833 25.3326 27.0528 26.1948C26.894 26.3274 26.7432 26.2567 26.8136 26.0817C27.0457 25.5022 27.5648 24.2054 27.3188 23.8902Z" fill="#F79C34"/>
<path fill-rule="evenodd" clip-rule="evenodd" d="M25.1182 18.0971V17.3465C25.1188 17.2321 25.2048 17.1561 25.3085 17.1564L28.6733 17.1561C28.7808 17.1561 28.8675 17.2342 28.8675 17.3456V17.9893C28.8663 18.0974 28.7752 18.2382 28.6141 18.4618L26.871 20.9505C27.5179 20.9355 28.2023 21.0324 28.7903 21.3626C28.9228 21.4372 28.9585 21.5476 28.9688 21.6558V22.4567C28.9688 22.5672 28.848 22.6948 28.7207 22.6285C27.6853 22.0859 26.311 22.0266 25.1656 22.635C25.0486 22.6974 24.9264 22.5713 24.9264 22.4609V21.6994C24.9264 21.5777 24.9287 21.3691 25.0516 21.1835L27.0707 18.2865L25.3126 18.2862C25.2051 18.2862 25.1188 18.2096 25.1182 18.0971Z" fill="#333E47"/>
<path fill-rule="evenodd" clip-rule="evenodd" d="M12.8443 22.7861H11.8206C11.723 22.7799 11.6453 22.7069 11.6373 22.6132L11.6382 17.3591C11.6382 17.2542 11.7266 17.1703 11.8359 17.1703L12.7892 17.17C12.8887 17.175 12.9689 17.2504 12.9751 17.3465V18.0323H12.9945C13.2428 17.3688 13.711 17.0592 14.3417 17.0592C14.9818 17.0592 15.3834 17.3688 15.67 18.0323C15.9183 17.3688 16.4822 17.0592 17.084 17.0592C17.5141 17.0592 17.9823 17.2363 18.2689 17.6343C18.5938 18.0768 18.5272 18.7178 18.5272 19.2816L18.5261 22.5973C18.5261 22.7019 18.438 22.7861 18.3287 22.7861H17.3065C17.2033 22.7796 17.1226 22.6983 17.1226 22.5976L17.1223 19.8122C17.1223 19.5913 17.1415 19.0386 17.0935 18.8286C17.0172 18.4744 16.788 18.3749 16.4919 18.3749C16.2433 18.3749 15.9852 18.5407 15.88 18.8059C15.7749 19.0716 15.7846 19.5135 15.7846 19.8122V22.5973C15.7846 22.7019 15.6962 22.7861 15.5872 22.7861H14.5647C14.4619 22.7796 14.3809 22.6983 14.3809 22.5976L14.3797 19.8122C14.3797 19.2263 14.4754 18.3643 13.7492 18.3643C13.0134 18.3643 13.0422 19.2042 13.0422 19.8122L13.0416 22.5973C13.0416 22.7019 12.9533 22.7861 12.8443 22.7861Z" fill="#333E47"/>
<path fill-rule="evenodd" clip-rule="evenodd" d="M31.7733 18.1318C31.0186 18.1318 30.9709 19.1597 30.9709 19.801C30.9709 20.4423 30.9614 21.8134 31.7642 21.8134C32.5572 21.8134 32.5955 20.7078 32.5955 20.0334C32.5955 19.5913 32.5761 19.0604 32.4424 18.6403C32.3278 18.2753 32.0983 18.1318 31.7733 18.1318ZM31.7642 17.0592C33.2834 17.0592 34.105 18.3643 34.105 20.0225C34.105 21.6251 33.1974 22.8969 31.7642 22.8969C30.2733 22.8969 29.4611 21.5921 29.4611 19.9672C29.4611 18.3307 30.2827 17.0592 31.7642 17.0592Z" fill="#333E47"/>
<path fill-rule="evenodd" clip-rule="evenodd" d="M36.0756 22.7861H35.0554C34.9532 22.7796 34.8719 22.6983 34.8719 22.5976L34.8701 17.3417C34.8789 17.2454 34.9638 17.1703 35.0669 17.1703L36.0163 17.17C36.1059 17.1747 36.1796 17.2354 36.1984 17.317V18.1206H36.2176C36.5045 17.4018 36.9054 17.0592 37.6124 17.0592C38.0711 17.0592 38.5204 17.2251 38.807 17.6785C39.0745 18.0985 39.0745 18.8059 39.0745 19.3146V22.6208C39.0633 22.7139 38.9797 22.7861 38.8783 22.7861H37.8522C37.7574 22.7802 37.6811 22.7104 37.6699 22.6208V19.7683C37.6699 19.1933 37.7371 18.3528 37.0297 18.3528C36.7814 18.3528 36.5519 18.5186 36.4373 18.7729C36.2939 19.0937 36.2747 19.4142 36.2747 19.7683V22.5973C36.2729 22.7019 36.1846 22.7861 36.0756 22.7861Z" fill="#333E47"/>
<path fill-rule="evenodd" clip-rule="evenodd" d="M23.4676 22.7731C23.4001 22.8338 23.3026 22.838 23.226 22.797C22.886 22.5145 22.8251 22.384 22.6392 22.1147C22.0774 22.6871 21.6794 22.8589 20.9515 22.8589C20.0898 22.8589 19.4193 22.3268 19.4193 21.2634C19.4193 20.4323 19.8697 19.8673 20.511 19.5904C21.0663 19.3464 21.842 19.3023 22.4359 19.2357V19.1028C22.4359 18.8586 22.4551 18.5711 22.3113 18.3604C22.1867 18.1719 21.9475 18.0944 21.7368 18.0944C21.3462 18.0944 20.9995 18.2945 20.914 18.7089C20.8961 18.8012 20.8289 18.8928 20.7364 18.8975L19.7439 18.79C19.6603 18.7708 19.5672 18.7036 19.591 18.5758C19.8164 17.3889 20.8763 17.0189 21.8397 17.0089H21.9157C22.4088 17.015 23.0386 17.1503 23.4222 17.5182C23.9204 17.9837 23.872 18.6041 23.872 19.2802V20.8748C23.872 21.3547 24.0715 21.565 24.2586 21.8234C24.3242 21.9168 24.3387 22.0272 24.2553 22.0956C24.0462 22.2709 23.6747 22.5934 23.4705 22.7755L23.4676 22.7731ZM22.4359 20.2774C22.4359 20.6762 22.4453 21.0085 22.2444 21.3632C22.0815 21.651 21.8229 21.8284 21.5356 21.8284C21.1432 21.8284 20.9135 21.5294 20.9135 21.086C20.9135 20.214 21.6953 20.0555 22.4359 20.0555V20.2774Z" fill="#333E47"/>
<path fill-rule="evenodd" clip-rule="evenodd" d="M10.0486 22.7731C9.98083 22.8338 9.88303 22.838 9.80673 22.797C9.46647 22.5145 9.40549 22.384 9.2199 22.1147C8.65781 22.6871 8.26011 22.8589 7.53218 22.8589C6.67049 22.8589 6 22.3268 6 21.2634C6 20.4323 6.44984 19.8673 7.09176 19.5904C7.64707 19.3464 8.42273 19.3023 9.01633 19.2357V19.1028C9.01633 18.8586 9.03578 18.5711 8.89202 18.3604C8.7674 18.1719 8.5279 18.0944 8.31756 18.0944C7.92693 18.0944 7.57961 18.2945 7.49476 18.7089C7.47709 18.8012 7.40963 18.8928 7.31683 18.8975L6.32464 18.79C6.24068 18.7708 6.14759 18.7036 6.17175 18.5758C6.39652 17.3889 7.45676 17.0189 8.42037 17.0089H8.49638C8.98953 17.015 9.61937 17.1503 10.0029 17.5182C10.5008 17.9837 10.4528 18.6041 10.4528 19.2802V20.8748C10.4528 21.3547 10.6522 21.565 10.8393 21.8234C10.9044 21.9168 10.9194 22.0272 10.836 22.0956C10.6269 22.2709 10.2551 22.5934 10.0509 22.7755L10.0486 22.7731ZM9.01633 20.2774C9.01633 20.6762 9.02606 21.0085 8.82485 21.3632C8.66223 21.651 8.40358 21.8284 8.11606 21.8284C7.72366 21.8284 7.49388 21.5294 7.49388 21.086C7.49388 20.214 8.27602 20.0555 9.01633 20.0555V20.2774Z" fill="#333E47"/>
<path fill-rule="evenodd" clip-rule="evenodd" d="M53.068 24.6709C53.068 24.5377 53.068 24.4181 53.068 24.285C53.068 24.1751 53.1219 24.0994 53.2365 24.1062C53.4503 24.1365 53.7529 24.1668 53.9676 24.1227C54.2481 24.0643 54.4493 23.8655 54.5683 23.593C54.7359 23.2094 54.847 22.9001 54.9171 22.6971L52.7875 17.4216C52.7516 17.332 52.741 17.1659 52.9198 17.1659H53.6642C53.8062 17.1659 53.8639 17.256 53.8958 17.3444L55.4397 21.6295L56.9136 17.3444C56.9436 17.2566 57.004 17.1659 57.1448 17.1659H57.8468C58.0245 17.1659 58.0145 17.3317 57.9791 17.4216L55.8666 22.8618C55.5932 23.5859 55.2291 24.7392 54.4089 24.9396C53.9977 25.0471 53.4789 25.0082 53.1743 24.8806C53.0974 24.8421 53.068 24.7389 53.068 24.6709Z" fill="#333E47"/>
<path fill-rule="evenodd" clip-rule="evenodd" d="M52.0749 22.4647C52.0749 22.5628 51.9945 22.6432 51.8958 22.6432H51.3708C51.2574 22.6432 51.1799 22.5613 51.1655 22.4647L51.1127 22.1074C50.8715 22.3115 50.5754 22.4909 50.2543 22.6158C49.6368 22.8556 48.9251 22.8954 48.3218 22.5248C47.8855 22.257 47.6539 21.7335 47.6539 21.1935C47.6539 20.7758 47.7827 20.3616 48.0681 20.0608C48.449 19.6499 49.0011 19.4481 49.6678 19.4481C50.0705 19.4481 50.6467 19.4955 51.0659 19.6325V18.9134C51.0659 18.1822 50.7581 17.8658 49.9464 17.8658C49.326 17.8658 48.8514 17.9595 48.191 18.1648C48.0852 18.1684 48.0233 18.0879 48.0233 17.9898V17.5798C48.0233 17.4814 48.1073 17.3862 48.1983 17.3573C48.67 17.1517 49.3381 17.0236 50.0484 17C50.9743 17 52.0749 17.2089 52.0749 18.6329V22.4647ZM51.0659 21.4148V20.3298C50.7136 20.2334 50.1306 20.1934 49.9049 20.1934C49.5485 20.1934 49.1581 20.2776 48.9543 20.4971C48.802 20.658 48.733 20.8889 48.733 21.1122C48.733 21.4009 48.8329 21.6905 49.0662 21.8337C49.3372 22.0178 49.7576 21.9954 50.1527 21.8832C50.5324 21.7753 50.8889 21.5847 51.0659 21.4148Z" fill="#333E47"/>
<path fill-rule="evenodd" clip-rule="evenodd" d="M44.3344 17.882C45.4993 17.882 45.8165 18.7979 45.8165 19.8466C45.823 20.5537 45.6931 21.1841 45.3269 21.545C45.053 21.8151 44.7469 21.8888 44.2861 21.8888C43.8761 21.8888 43.3367 21.6749 42.9337 21.3771V18.3784C43.3532 18.0561 43.8884 17.882 44.3344 17.882ZM42.7551 24.8591H42.0519C41.9535 24.8591 41.8731 24.7787 41.8731 24.6806C41.8731 22.2384 41.8731 19.796 41.8731 17.3538C41.8731 17.2557 41.9535 17.1753 42.0519 17.1753H42.5902C42.7033 17.1753 42.7808 17.2572 42.7952 17.3538L42.8518 17.7377C43.3558 17.2902 44.0048 17.0032 44.6231 17.0032C46.3551 17.0032 46.9245 18.4302 46.9245 19.9141C46.9245 21.5017 46.0534 22.7773 44.5801 22.7773C43.9597 22.7773 43.3797 22.5484 42.9337 22.1507V24.6806C42.9337 24.7787 42.8532 24.8591 42.7551 24.8591Z" fill="#333E47"/>
</svg>
