<svg width="18" height="18" viewBox="0 0 18 18" fill="none" xmlns="http://www.w3.org/2000/svg">
<path fill-rule="evenodd" clip-rule="evenodd" d="M16.4061 9C16.4061 6.93529 15.6845 5.18382 14.2412 3.74559C12.7979 2.30735 11.0402 1.58824 8.96822 1.58824C7.80755 1.58824 6.71985 1.84518 5.7051 2.35906C4.69018 2.87276 3.81623 3.57962 3.08324 4.47962H5.35996V6.06785H0.467754L0.467754 1.19L2.06159 1.19V3.20082C2.92386 2.18682 3.95649 1.39985 5.15948 0.839911C6.3623 0.27997 7.63187 0 8.96822 0C10.2215 0 11.3958 0.236207 12.4911 0.708618C13.5863 1.18103 14.5412 1.82312 15.3558 2.63488C16.1704 3.44665 16.8148 4.39827 17.2888 5.48974C17.7629 6.58103 18 7.75112 18 9H16.4061ZM1.59384 9C1.59384 11.0647 2.31549 12.8162 3.7588 14.2544C5.20211 15.6926 6.95976 16.4118 9.03174 16.4118C10.1924 16.4118 11.2801 16.1548 12.2949 15.6409C13.3098 15.1272 14.1837 14.4204 14.9167 13.5204H12.64L12.64 11.9321L17.5322 11.9321V16.81H15.9384L15.9384 14.7992C15.0761 15.8132 14.0435 16.6001 12.8405 17.1601C11.6377 17.72 10.3681 18 9.03174 18C7.77846 18 6.60416 17.7638 5.50883 17.2914C4.41369 16.819 3.4588 16.1769 2.64418 15.3651C1.82955 14.5534 1.18519 13.6017 0.711117 12.5103C0.23704 11.419 0 10.2489 0 9L1.59384 9Z" fill="#1E1E1E"/>
<path d="M11.4697 6.46997L12.5297 7.52997L7.99973 12.06L5.46973 9.52997L6.52973 8.46997L7.99973 9.93997L11.4697 6.46997Z" fill="#1E1E1E"/>
</svg>
